# xmcd
# 
# Track frame offsets:
#     150
#     19190
#     36129
#     53624
#     82010
#     116036
# 
# Disc length: 2237
# 
# Revision: 0
# Processed by: cddbd v1.5.2PL0 Copyright (c) Steve Scherf et al.
# Submitted via: BonkEnc v1.0.15
# 
DISCID=4508bb06
DTITLE=Chris Brown - With You - Premium Maxi CD
DYEAR=2008
DGENRE=Soul
TTITLE0=With You (Album Version)
TTITLE1=With You (B&B Soul Brothers Remix)
TTITLE2=With You (Kardinal Beats Remix)
TTITLE3=With You (Tracey Young Remix)
TTITLE4=With You (Kovas Ghetto Beats Remix)
TTITLE5=Datentrack (With You - Music Video)
EXTD=
EXTT0=
EXTT1=
EXTT2=
EXTT3=
EXTT4=
EXTT5=
PLAYORDER=
